REM DIRINDEX 1\5,1\2\6,1\2\7,1\3\8,1\3\9,1\4\10,1\4\11,1\4\12
REM DIRNAME cjc026,folder01,folder02,folder03,folder04,folder05,folder06,folder07,folder08,folder09,folder10,folder11
TITLE ""
FILE "EJE_DB3000_5th_5C_11.mp3" MP3
  TRACK 01 AUDIO
    TITLE "0:"
    INDEX 01 00:00:00
  TRACK 02 AUDIO
    TITLE "10:cjc026_10527"
    INDEX 01 00:00:08
  TRACK 03 AUDIO
    TITLE "0:"
    INDEX 01 00:01:22
  TRACK 04 AUDIO
    TITLE "11:cjc026_10528"
    INDEX 01 00:01:60
  TRACK 05 AUDIO
    TITLE "0:"
    INDEX 01 00:03:12
  TRACK 06 AUDIO
    TITLE "12:cjc026_10529"
    INDEX 01 00:03:47
  TRACK 07 AUDIO
    TITLE "0:"
    INDEX 01 00:04:61
  TRACK 08 AUDIO
    TITLE "10:cjc026_10530"
    INDEX 01 00:05:24
  TRACK 09 AUDIO
    TITLE "0:"
    INDEX 01 00:06:41
  TRACK 10 AUDIO
    TITLE "11:cjc026_10531"
    INDEX 01 00:06:73
  TRACK 11 AUDIO
    TITLE "0:"
    INDEX 01 00:08:18
  TRACK 12 AUDIO
    TITLE "12:cjc026_10532"
    INDEX 01 00:08:56
  TRACK 13 AUDIO
    TITLE "0:"
    INDEX 01 00:09:70
  TRACK 14 AUDIO
    TITLE "10:cjc026_10533"
    INDEX 01 00:10:30
  TRACK 15 AUDIO
    TITLE "0:"
    INDEX 01 00:11:39
  TRACK 16 AUDIO
    TITLE "11:cjc026_10534"
    INDEX 01 00:11:74
  TRACK 17 AUDIO
    TITLE "0:"
    INDEX 01 00:13:26
  TRACK 18 AUDIO
    TITLE "12:cjc026_10535"
    INDEX 01 00:13:61
  TRACK 19 AUDIO
    TITLE "0:"
    INDEX 01 00:14:67
  TRACK 20 AUDIO
    TITLE "10:cjc026_10536"
    INDEX 01 00:15:27
  TRACK 21 AUDIO
    TITLE "0:"
    INDEX 01 00:16:69
  TRACK 22 AUDIO
    TITLE "11:cjc026_10537"
    INDEX 01 00:17:23
  TRACK 23 AUDIO
    TITLE "0:"
    INDEX 01 00:18:70
  TRACK 24 AUDIO
    TITLE "12:cjc026_10538"
    INDEX 01 00:19:30
  TRACK 25 AUDIO
    TITLE "0:"
    INDEX 01 00:20:68
  TRACK 26 AUDIO
    TITLE "10:cjc026_10539"
    INDEX 01 00:21:31
  TRACK 27 AUDIO
    TITLE "0:"
    INDEX 01 00:22:61
  TRACK 28 AUDIO
    TITLE "11:cjc026_10540"
    INDEX 01 00:23:24
  TRACK 29 AUDIO
    TITLE "0:"
    INDEX 01 00:24:52
  TRACK 30 AUDIO
    TITLE "12:cjc026_10541"
    INDEX 01 00:25:15
  TRACK 31 AUDIO
    TITLE "0:"
    INDEX 01 00:26:45
  TRACK 32 AUDIO
    TITLE "10:cjc026_10542"
    INDEX 01 00:27:08
  TRACK 33 AUDIO
    TITLE "0:"
    INDEX 01 00:28:38
  TRACK 34 AUDIO
    TITLE "11:cjc026_10543"
    INDEX 01 00:29:01
  TRACK 35 AUDIO
    TITLE "0:"
    INDEX 01 00:30:58
  TRACK 36 AUDIO
    TITLE "12:cjc026_10544"
    INDEX 01 00:31:18
  TRACK 37 AUDIO
    TITLE "0:"
    INDEX 01 00:32:46
  TRACK 38 AUDIO
    TITLE "10:cjc026_10545"
    INDEX 01 00:33:08
  TRACK 39 AUDIO
    TITLE "0:"
    INDEX 01 00:34:42
  TRACK 40 AUDIO
    TITLE "11:cjc026_10546"
    INDEX 01 00:34:74
  TRACK 41 AUDIO
    TITLE "0:"
    INDEX 01 00:36:24
  TRACK 42 AUDIO
    TITLE "12:cjc026_10547"
    INDEX 01 00:36:59
  TRACK 43 AUDIO
    TITLE "0:"
    INDEX 01 00:38:11
  TRACK 44 AUDIO
    TITLE "10:cjc026_10548"
    INDEX 01 00:38:52
  TRACK 45 AUDIO
    TITLE "0:"
    INDEX 01 00:40:13
  TRACK 46 AUDIO
    TITLE "11:cjc026_10549"
    INDEX 01 00:40:53
  TRACK 47 AUDIO
    TITLE "0:"
    INDEX 01 00:42:33
  TRACK 48 AUDIO
    TITLE "12:cjc026_10550"
    INDEX 01 00:42:71
  TRACK 49 AUDIO
    TITLE "0:"
    INDEX 01 00:44:31
  TRACK 50 AUDIO
    TITLE "10:cjc026_10551"
    INDEX 01 00:44:72
  TRACK 51 AUDIO
    TITLE "0:"
    INDEX 01 00:46:19
  TRACK 52 AUDIO
    TITLE "11:cjc026_10552"
    INDEX 01 00:46:60
  TRACK 53 AUDIO
    TITLE "0:"
    INDEX 01 00:48:28
  TRACK 54 AUDIO
    TITLE "12:cjc026_10553"
    INDEX 01 00:48:63
  TRACK 55 AUDIO
    TITLE "0:"
    INDEX 01 00:50:13
  TRACK 56 AUDIO
    TITLE "10:cjc026_10554"
    INDEX 01 00:50:54
  TRACK 57 AUDIO
    TITLE "0:"
    INDEX 01 00:51:65
  TRACK 58 AUDIO
    TITLE "11:cjc026_10555"
    INDEX 01 00:52:28
  TRACK 59 AUDIO
    TITLE "0:"
    INDEX 01 00:53:56
  TRACK 60 AUDIO
    TITLE "12:cjc026_10556"
    INDEX 01 00:54:18
  TRACK 61 AUDIO
    TITLE "0:"
    INDEX 01 00:55:33
  TRACK 62 AUDIO
    TITLE "10:cjc026_10557"
    INDEX 01 00:55:73
  TRACK 63 AUDIO
    TITLE "0:"
    INDEX 01 00:57:23
  TRACK 64 AUDIO
    TITLE "11:cjc026_10558"
    INDEX 01 00:57:58
  TRACK 65 AUDIO
    TITLE "0:"
    INDEX 01 00:59:30
  TRACK 66 AUDIO
    TITLE "12:cjc026_10559"
    INDEX 01 00:59:70
  TRACK 67 AUDIO
    TITLE "0:"
    INDEX 01 01:01:20
  TRACK 68 AUDIO
    TITLE "10:cjc026_10560"
    INDEX 01 01:01:58
  TRACK 69 AUDIO
    TITLE "0:"
    INDEX 01 01:02:69
  TRACK 70 AUDIO
    TITLE "11:cjc026_10561"
    INDEX 01 01:03:32
  TRACK 71 AUDIO
    TITLE "0:"
    INDEX 01 01:04:43
  TRACK 72 AUDIO
    TITLE "12:cjc026_10562"
    INDEX 01 01:05:09
  TRACK 73 AUDIO
    TITLE "0:"
    INDEX 01 01:06:20
  TRACK 74 AUDIO
    TITLE "10:cjc026_10563"
    INDEX 01 01:06:61
  TRACK 75 AUDIO
    TITLE "0:"
    INDEX 01 01:08:08
  TRACK 76 AUDIO
    TITLE "11:cjc026_10564"
    INDEX 01 01:08:46
  TRACK 77 AUDIO
    TITLE "0:"
    INDEX 01 01:10:63
  TRACK 78 AUDIO
    TITLE "12:cjc026_10565"
    INDEX 01 01:11:26
  TRACK 79 AUDIO
    TITLE "0:"
    INDEX 01 01:12:48
  TRACK 80 AUDIO
    TITLE "10:cjc026_10566"
    INDEX 01 01:13:11
  TRACK 81 AUDIO
    TITLE "0:"
    INDEX 01 01:14:47
  TRACK 82 AUDIO
    TITLE "11:cjc026_10567"
    INDEX 01 01:15:07
  TRACK 83 AUDIO
    TITLE "0:"
    INDEX 01 01:16:61
  TRACK 84 AUDIO
    TITLE "12:cjc026_10568"
    INDEX 01 01:17:19
  TRACK 85 AUDIO
    TITLE "0:"
    INDEX 01 01:18:54
